<svg xmlns="http://www.w3.org/2000/svg" width="233.431" height="43.5" viewBox="0 0 233.431 43.5">
    <defs>
        <style>
            .cls-1,.cls-2{fill:#fff}.cls-2{stroke:#fff;stroke-miterlimit:10}
        </style>
    </defs>
    <g id="Group_10871" transform="translate(-100 -29)">
        <g id="Group_10661" transform="translate(160.806 38.829)">
            <g id="Group_15">
                <g id="Group_7" transform="translate(0 .443)">
                    <path id="Path_7" d="M41.772 29.187a.378.378 0 0 1-.382-.382V8.772a.378.378 0 0 1 .382-.382h8.282a8.463 8.463 0 0 1 5.425 1.971 7.478 7.478 0 0 1 1.834 2.353A6.961 6.961 0 0 1 58 15.862a6.82 6.82 0 0 1-1.1 3.82 7.6 7.6 0 0 1-2.873 2.6 8.236 8.236 0 0 1-3.881.947 10.619 10.619 0 0 1-2.521-.275 10.318 10.318 0 0 1-1.314-.413v6.3a.378.378 0 0 1-.382.382h-4.157zm4.538-10.865a9.8 9.8 0 0 0 1.3.351 9.254 9.254 0 0 0 1.849.183 3.587 3.587 0 0 0 2.6-.9A2.793 2.793 0 0 0 53 15.862a2.335 2.335 0 0 0-1.024-2.078 4.594 4.594 0 0 0-2.6-.749h-3.05v5.287z" class="cls-1" transform="translate(-41.008 -8.008)"/>
                    <path id="Path_8" d="M50.186 8.9a8.138 8.138 0 0 1 2.75.474 7.719 7.719 0 0 1 2.43 1.406 6.627 6.627 0 0 1 2.368 5.211A6.436 6.436 0 0 1 56.7 19.6a7.326 7.326 0 0 1-2.735 2.46 7.847 7.847 0 0 1-3.713.9 9.626 9.626 0 0 1-2.414-.275 8.6 8.6 0 0 1-1.788-.627v6.876h-4.161V8.9h8.3m-.6 10.467a3.979 3.979 0 0 0 2.857-1.009 3.191 3.191 0 0 0 1.054-2.379 2.729 2.729 0 0 0-1.192-2.4 4.908 4.908 0 0 0-2.812-.81H46.06v5.914a8.481 8.481 0 0 0 1.6.458 7.381 7.381 0 0 0 1.925.229m.6-11.231H41.9a.757.757 0 0 0-.764.764v20.034a.757.757 0 0 0 .764.764h4.16a.757.757 0 0 0 .764-.764v-5.746c.26.092.55.168.84.244a10.6 10.6 0 0 0 2.613.29 8.769 8.769 0 0 0 4.065-.978 8.119 8.119 0 0 0 3.026-2.72 7.2 7.2 0 0 0 1.161-4.019 7.544 7.544 0 0 0-.718-3.316 7.631 7.631 0 0 0-1.925-2.475 8.883 8.883 0 0 0-5.7-2.078zm-3.362 5.409H49.5a4.086 4.086 0 0 1 2.384.672 1.941 1.941 0 0 1 .856 1.757 2.412 2.412 0 0 1-.825 1.818 3.237 3.237 0 0 1-2.338.795 8.4 8.4 0 0 1-1.773-.183 7.177 7.177 0 0 1-.993-.26v-4.6z" class="cls-1" transform="translate(-41.14 -8.14)"/>
                </g>
                <g id="Group_8" transform="translate(20.033 .29)">
                    <path id="Path_9" d="M70.57 29.24a.378.378 0 0 1-.382-.382V17.642l-4.477 4.89a.383.383 0 0 1-.275.122h-1.192a.358.358 0 0 1-.275-.122l-4.539-4.906v11.232a.378.378 0 0 1-.382.382h-4.156a.378.378 0 0 1-.382-.382V8.672a.378.378 0 0 1 .382-.382H56.3a.383.383 0 0 1 .275.122l8.282 8.618 8.221-8.618a.383.383 0 0 1 .275-.122h1.406a.378.378 0 0 1 .382.382v20.186a.378.378 0 0 1-.382.382z" class="cls-1" transform="translate(-54.113 -7.908)"/>
                    <path id="Path_10" d="M74.863 8.8v20.19h-4.156V16.8l-5.15 5.623h-1.191L59.17 16.8v12.19h-4.156V8.8h1.406l8.557 8.909 8.5-8.909h1.391m0-.764h-1.41a.74.74 0 0 0-.55.244l-7.946 8.328-7.992-8.324a.726.726 0 0 0-.55-.229h-1.406a.757.757 0 0 0-.764.764V29a.757.757 0 0 0 .764.764h4.156a.757.757 0 0 0 .764-.764V18.752l3.881 4.187a.773.773 0 0 0 .565.244h1.192a.8.8 0 0 0 .565-.244l3.82-4.172V29a.757.757 0 0 0 .764.764h4.156a.757.757 0 0 0 .766-.764V8.8a.79.79 0 0 0-.779-.764z" class="cls-1" transform="translate(-54.25 -8.04)"/>
                </g>
                <g id="Group_9" transform="translate(48.821 .061)">
                    <path id="Path_11" d="M79.957 29.67a10.076 10.076 0 0 1-3.515-.627 12.369 12.369 0 0 1-2.9-1.513.4.4 0 0 1-.153-.306v-4.1a.366.366 0 0 1 .214-.336.348.348 0 0 1 .168-.046.455.455 0 0 1 .229.076 14.464 14.464 0 0 0 2.824 1.582 8.5 8.5 0 0 0 3.239.627 4.128 4.128 0 0 0 1.971-.443 1.218 1.218 0 0 0 .7-1.146 1.09 1.09 0 0 0-.565-.947 7.186 7.186 0 0 0-1.528-.779l-3.087-1.192A6.116 6.116 0 0 1 74.211 18a6.813 6.813 0 0 1-.871-3.408 5.654 5.654 0 0 1 1.07-3.408 7.282 7.282 0 0 1 2.766-2.246 8.463 8.463 0 0 1 3.667-.795 10.218 10.218 0 0 1 3.285.5 11.278 11.278 0 0 1 2.506 1.147.415.415 0 0 1 .183.321v4.1a.4.4 0 0 1-.2.336.407.407 0 0 1-.183.046.307.307 0 0 1-.2-.061 22.575 22.575 0 0 0-2.262-1.207 6.237 6.237 0 0 0-2.613-.535 4.606 4.606 0 0 0-1.421.229 2.669 2.669 0 0 0-1.1.627 1.222 1.222 0 0 0-.382.947 1.253 1.253 0 0 0 .672 1.161 16.776 16.776 0 0 0 2.078.993l2.46 1.024a8.076 8.076 0 0 1 3.239 2.307 5.1 5.1 0 0 1 1.07 3.163 5.45 5.45 0 0 1-1.115 3.392 7.463 7.463 0 0 1-2.9 2.262 10.112 10.112 0 0 1-4.003.775z" class="cls-1" transform="translate(-72.958 -7.758)"/>
                    <path id="Path_12" d="M80.959 8.654a9.82 9.82 0 0 1 3.163.474 11.153 11.153 0 0 1 2.414 1.1v4.1A21.847 21.847 0 0 0 84.23 13.1a6.509 6.509 0 0 0-2.781-.565 4.864 4.864 0 0 0-1.543.244 2.973 2.973 0 0 0-1.253.718 1.612 1.612 0 0 0-.489 1.222 1.633 1.633 0 0 0 .871 1.5 18.621 18.621 0 0 0 2.124 1.024l2.441 1.023a7.666 7.666 0 0 1 3.087 2.185 4.7 4.7 0 0 1 .993 2.934 5.062 5.062 0 0 1-1.039 3.148 7.046 7.046 0 0 1-2.75 2.139 9.109 9.109 0 0 1-3.8.779 9.64 9.64 0 0 1-3.377-.6 11.606 11.606 0 0 1-2.814-1.463v-4.1a14.066 14.066 0 0 0 2.9 1.62 8.639 8.639 0 0 0 3.377.657 4.488 4.488 0 0 0 2.155-.489 1.611 1.611 0 0 0 .9-1.482 1.465 1.465 0 0 0-.732-1.264 7.941 7.941 0 0 0-1.6-.825l-3.071-1.222a5.708 5.708 0 0 1-3.148-2.353 6.352 6.352 0 0 1-.825-3.209 5.159 5.159 0 0 1 1.009-3.178 6.867 6.867 0 0 1 2.613-2.124 8.072 8.072 0 0 1 3.484-.764m0-.764a8.731 8.731 0 0 0-3.82.84 7.611 7.611 0 0 0-2.9 2.353 6 6 0 0 0-1.152 3.636 7.176 7.176 0 0 0 .917 3.591A6.67 6.67 0 0 0 77.552 21l3.071 1.192a6.86 6.86 0 0 1 1.452.749.714.714 0 0 1 .4.642.819.819 0 0 1-.5.81 3.726 3.726 0 0 1-1.788.4 8.048 8.048 0 0 1-3.087-.6 13.684 13.684 0 0 1-2.75-1.528.816.816 0 0 0-.443-.153.906.906 0 0 0-.351.076.768.768 0 0 0-.413.688v4.1a.746.746 0 0 0 .321.611 12.289 12.289 0 0 0 2.995 1.559 10.478 10.478 0 0 0 3.637.642 10.105 10.105 0 0 0 4.126-.84 7.736 7.736 0 0 0 3.041-2.368 5.826 5.826 0 0 0 1.192-3.621 5.416 5.416 0 0 0-1.155-3.397 8.184 8.184 0 0 0-3.392-2.414l-2.46-1.024a17.212 17.212 0 0 1-2.032-.963.9.9 0 0 1-.489-.84.844.844 0 0 1 .26-.672 2.479 2.479 0 0 1 .947-.535 4.284 4.284 0 0 1 1.314-.2 5.755 5.755 0 0 1 2.46.5 23.733 23.733 0 0 1 2.231 1.192.74.74 0 0 0 .4.107.768.768 0 0 0 .367-.092.777.777 0 0 0 .4-.672v-4.121a.771.771 0 0 0-.351-.642 11.78 11.78 0 0 0-2.6-1.192 10.758 10.758 0 0 0-3.392-.5z" class="cls-1" transform="translate(-73.09 -7.89)"/>
                </g>
                <g id="Group_10" transform="translate(65.187)">
                    <path id="Path_13" d="M95.016 29.788a11.053 11.053 0 0 1-4.2-.795 10.772 10.772 0 0 1-3.5-2.231 10.379 10.379 0 0 1-2.384-3.423 10.826 10.826 0 0 1-.871-4.4 10.826 10.826 0 0 1 .871-4.4 10.448 10.448 0 0 1 2.384-3.423 11.031 11.031 0 0 1 3.5-2.231 11.413 11.413 0 0 1 4.2-.795 9.454 9.454 0 0 1 3.392.55 8.037 8.037 0 0 1 2.506 1.5.417.417 0 0 1 .122.29v4.187a.366.366 0 0 1-.214.336.348.348 0 0 1-.168.046.412.412 0 0 1-.229-.076c-.474-.351-.963-.7-1.467-1.039a7.31 7.31 0 0 0-1.666-.795 7.01 7.01 0 0 0-2.17-.306 6.029 6.029 0 0 0-3.071.81 6.34 6.34 0 0 0-2.2 8.5 5.974 5.974 0 0 0 5.272 2.995 7.926 7.926 0 0 0 3.209-.581 11.681 11.681 0 0 0 2.384-1.452.347.347 0 0 1 .244-.092.65.65 0 0 1 .168.031.373.373 0 0 1 .214.351v4.034a.417.417 0 0 1-.122.29 8.017 8.017 0 0 1-2.674 1.559 10.245 10.245 0 0 1-3.53.56z" class="cls-1" transform="translate(-83.663 -7.723)"/>
                    <path id="Path_14" d="M95.153 8.614a9.091 9.091 0 0 1 3.255.52 7.98 7.98 0 0 1 2.4 1.421v4.187c-.474-.351-.978-.7-1.5-1.039a8.366 8.366 0 0 0-1.742-.84 7.252 7.252 0 0 0-2.292-.336 6.255 6.255 0 0 0-3.255.871 6.591 6.591 0 0 0-2.338 2.338 6.428 6.428 0 0 0-.871 3.346 6.41 6.41 0 0 0 6.464 6.525 8.111 8.111 0 0 0 3.362-.611 11.427 11.427 0 0 0 2.46-1.513v4.034A7.615 7.615 0 0 1 98.561 29a10.025 10.025 0 0 1-3.408.55 10.924 10.924 0 0 1-4.065-.764 10.2 10.2 0 0 1-6.525-9.7 10.387 10.387 0 0 1 .84-4.248 9.9 9.9 0 0 1 2.307-3.3 10.445 10.445 0 0 1 3.377-2.155 10.682 10.682 0 0 1 4.065-.764m0-.764a11.855 11.855 0 0 0-4.355.81 11.1 11.1 0 0 0-3.622 2.307 10.977 10.977 0 0 0-2.475 3.54 11.318 11.318 0 0 0-.9 4.554 11.318 11.318 0 0 0 .9 4.554 10.977 10.977 0 0 0 2.475 3.545 11.1 11.1 0 0 0 3.625 2.307 11.855 11.855 0 0 0 4.355.81 10.735 10.735 0 0 0 3.667-.6 8.241 8.241 0 0 0 2.8-1.635.773.773 0 0 0 .244-.565v-4.031a.765.765 0 0 0-.428-.688.833.833 0 0 0-.336-.076.779.779 0 0 0-.474.168 10.839 10.839 0 0 1-2.292 1.406 7.438 7.438 0 0 1-3.056.55 5.559 5.559 0 0 1-2.873-.749A5.8 5.8 0 0 1 90.34 22a5.585 5.585 0 0 1-.764-2.949 5.674 5.674 0 0 1 2.824-5.028 5.571 5.571 0 0 1 2.873-.764 6.24 6.24 0 0 1 2.048.29 7.5 7.5 0 0 1 1.579.751c.5.336.993.672 1.452 1.024a.721.721 0 0 0 .458.153.833.833 0 0 0 .336-.076.765.765 0 0 0 .428-.688v-4.158a.734.734 0 0 0-.26-.565 8.5 8.5 0 0 0-2.628-1.559 9.55 9.55 0 0 0-3.53-.581z" class="cls-1" transform="translate(-83.8 -7.85)"/>
                </g>
                <g id="Group_11" transform="translate(86.06 .443)">
                    <path id="Path_15" d="M111.549 29.187a.378.378 0 0 1-.382-.382v-7.747h-8.527V28.8a.378.378 0 0 1-.382.382H98.1a.378.378 0 0 1-.382-.382V8.772a.378.378 0 0 1 .382-.382h4.156a.378.378 0 0 1 .382.382v7.778h8.527V8.772a.378.378 0 0 1 .382-.382h4.126a.378.378 0 0 1 .382.382V28.8a.378.378 0 0 1-.382.382z" class="cls-1" transform="translate(-97.323 -8.008)"/>
                    <path id="Path_16" d="M115.812 8.9v20.037h-4.126v-8.129h-9.306v8.129h-4.156V8.9h4.156v8.16h9.306V8.9h4.126m0-.764h-4.126a.757.757 0 0 0-.764.764v7.4h-7.778V8.9a.757.757 0 0 0-.764-.764h-4.156a.757.757 0 0 0-.764.764v20.037a.757.757 0 0 0 .764.764h4.156a.757.757 0 0 0 .764-.764v-7.365h7.778v7.365a.757.757 0 0 0 .764.764h4.126a.757.757 0 0 0 .764-.764V8.9a.757.757 0 0 0-.764-.764z" class="cls-1" transform="translate(-97.46 -8.14)"/>
                </g>
                <g id="Group_12" transform="translate(107.988)">
                    <path id="Path_17" d="M122.934 29.788a10.92 10.92 0 0 1-4.187-.795 10.639 10.639 0 0 1-3.469-2.231 10.527 10.527 0 0 1-2.353-3.423 11.082 11.082 0 0 1-.856-4.4 11.081 11.081 0 0 1 .856-4.4 10.367 10.367 0 0 1 2.353-3.423 10.639 10.639 0 0 1 3.469-2.231 11.274 11.274 0 0 1 4.187-.795 10.92 10.92 0 0 1 4.187.795 10.532 10.532 0 0 1 5.807 5.654 11.081 11.081 0 0 1 .856 4.4 11.134 11.134 0 0 1-.856 4.4 10.367 10.367 0 0 1-2.353 3.423 10.573 10.573 0 0 1-3.453 2.231 11.032 11.032 0 0 1-4.188.795zm0-17.007a5.691 5.691 0 0 0-3.01.81 5.863 5.863 0 0 0-2.093 2.185 6.459 6.459 0 0 0-.764 3.163 6.484 6.484 0 0 0 .764 3.148 5.917 5.917 0 0 0 8.1 2.185 5.829 5.829 0 0 0 2.078-2.185 6.484 6.484 0 0 0 .764-3.148 6.459 6.459 0 0 0-.764-3.163 5.829 5.829 0 0 0-2.078-2.185 5.637 5.637 0 0 0-2.997-.81z" class="cls-1" transform="translate(-111.673 -7.723)"/>
                    <path id="Path_18" d="M123.072 8.614a10.707 10.707 0 0 1 4.034.764 10.219 10.219 0 0 1 5.608 5.455 10.639 10.639 0 0 1 .825 4.248 10.638 10.638 0 0 1-.825 4.248 9.667 9.667 0 0 1-2.277 3.3 10.246 10.246 0 0 1-3.331 2.155 10.707 10.707 0 0 1-4.034.764 10.844 10.844 0 0 1-4.049-.764 10.182 10.182 0 0 1-5.623-5.455 10.586 10.586 0 0 1-.825-4.248 10.639 10.639 0 0 1 .825-4.248 9.816 9.816 0 0 1 2.277-3.3 10.152 10.152 0 0 1 3.346-2.155 10.5 10.5 0 0 1 4.049-.764m0 16.977a6 6 0 0 0 5.409-3.194 6.889 6.889 0 0 0 .81-3.331 6.864 6.864 0 0 0-.81-3.346 6.263 6.263 0 0 0-2.216-2.338 5.926 5.926 0 0 0-3.194-.871 6.017 6.017 0 0 0-3.209.871 6.185 6.185 0 0 0-2.231 2.338 6.864 6.864 0 0 0-.81 3.346 6.846 6.846 0 0 0 .81 3.331 6.052 6.052 0 0 0 5.44 3.194m0-17.741a11.775 11.775 0 0 0-4.34.81 10.966 10.966 0 0 0-3.591 2.307 10.575 10.575 0 0 0-2.445 3.56 11.524 11.524 0 0 0-.886 4.554 11.365 11.365 0 0 0 .886 4.554 10.729 10.729 0 0 0 2.445 3.56 11.127 11.127 0 0 0 3.591 2.307 11.716 11.716 0 0 0 4.34.81 11.347 11.347 0 0 0 4.324-.825 11.061 11.061 0 0 0 3.576-2.307 10.575 10.575 0 0 0 2.445-3.56 11.523 11.523 0 0 0 .886-4.554 11.365 11.365 0 0 0-.886-4.554 10.728 10.728 0 0 0-2.445-3.56 11.061 11.061 0 0 0-3.571-2.307 12 12 0 0 0-4.324-.795zm0 16.977a5.305 5.305 0 0 1-4.783-2.8 6.121 6.121 0 0 1-.718-2.964 6.1 6.1 0 0 1 .718-2.98 5.5 5.5 0 0 1 7.564-2.048 5.433 5.433 0 0 1 1.941 2.048 6.1 6.1 0 0 1 .718 2.98 6.122 6.122 0 0 1-.718 2.964 5.433 5.433 0 0 1-1.941 2.048 5.122 5.122 0 0 1-2.781.749z" class="cls-1" transform="translate(-111.81 -7.85)"/>
                </g>
                <g id="Group_13" transform="translate(131.627)">
                    <path id="Path_19" d="M138.4 29.788a10.92 10.92 0 0 1-4.187-.795 10.639 10.639 0 0 1-3.469-2.231 10.3 10.3 0 0 1-2.344-3.422 11.081 11.081 0 0 1-.856-4.4 11.135 11.135 0 0 1 .856-4.4 10.367 10.367 0 0 1 2.353-3.423 10.639 10.639 0 0 1 3.469-2.231 11.274 11.274 0 0 1 4.178-.796 10.976 10.976 0 0 1 4.187.795 10.826 10.826 0 0 1 3.453 2.231 10.527 10.527 0 0 1 2.353 3.423 11.081 11.081 0 0 1 .856 4.4 11.135 11.135 0 0 1-.856 4.4 10.367 10.367 0 0 1-2.353 3.423 10.573 10.573 0 0 1-3.453 2.231 10.92 10.92 0 0 1-4.187.795zm0-17.007a5.691 5.691 0 0 0-3.01.81 5.863 5.863 0 0 0-2.093 2.185 6.5 6.5 0 0 0-.764 3.163 6.484 6.484 0 0 0 .764 3.148 5.917 5.917 0 0 0 8.1 2.185 5.829 5.829 0 0 0 2.078-2.185 6.9 6.9 0 0 0 0-6.311 5.829 5.829 0 0 0-2.078-2.185 5.637 5.637 0 0 0-2.997-.81z" class="cls-1" transform="translate(-127.143 -7.723)"/>
                    <path id="Path_20" d="M138.542 8.614a10.707 10.707 0 0 1 4.034.764 10.219 10.219 0 0 1 5.608 5.455 10.639 10.639 0 0 1 .825 4.248 10.638 10.638 0 0 1-.825 4.248 9.667 9.667 0 0 1-2.277 3.3 10.246 10.246 0 0 1-3.331 2.155 10.707 10.707 0 0 1-4.034.764 10.844 10.844 0 0 1-4.049-.764 10.182 10.182 0 0 1-5.623-5.455 10.586 10.586 0 0 1-.825-4.248 10.639 10.639 0 0 1 .825-4.248 9.815 9.815 0 0 1 2.277-3.3 10.152 10.152 0 0 1 3.346-2.155 10.549 10.549 0 0 1 4.049-.764m0 16.977a6 6 0 0 0 5.409-3.194 6.889 6.889 0 0 0 .81-3.331 6.864 6.864 0 0 0-.81-3.346 6.263 6.263 0 0 0-2.216-2.338 5.926 5.926 0 0 0-3.194-.871 6.017 6.017 0 0 0-3.209.871 6.185 6.185 0 0 0-2.231 2.338 6.864 6.864 0 0 0-.81 3.346 6.846 6.846 0 0 0 .81 3.331 6.077 6.077 0 0 0 2.231 2.338 6.146 6.146 0 0 0 3.209.856m0-17.741a11.774 11.774 0 0 0-4.34.81 10.966 10.966 0 0 0-3.591 2.307 10.576 10.576 0 0 0-2.445 3.56 11.525 11.525 0 0 0-.886 4.554 11.365 11.365 0 0 0 .886 4.554 10.729 10.729 0 0 0 2.445 3.56 11.128 11.128 0 0 0 3.59 2.305 11.716 11.716 0 0 0 4.34.81 11.347 11.347 0 0 0 4.324-.825 11.061 11.061 0 0 0 3.576-2.307 10.576 10.576 0 0 0 2.445-3.56 11.578 11.578 0 0 0 .886-4.554 11.365 11.365 0 0 0-.886-4.554 10.729 10.729 0 0 0-2.445-3.56 11.061 11.061 0 0 0-3.576-2.307 11.942 11.942 0 0 0-4.324-.795zm0 16.977a5.305 5.305 0 0 1-4.783-2.8 6.121 6.121 0 0 1-.718-2.964 6.1 6.1 0 0 1 .718-2.98 5.5 5.5 0 0 1 7.564-2.048 5.433 5.433 0 0 1 1.941 2.048 6.1 6.1 0 0 1 .718 2.98 6.122 6.122 0 0 1-.718 2.964 5.433 5.433 0 0 1-1.941 2.048 5.05 5.05 0 0 1-2.781.749z" class="cls-1" transform="translate(-127.28 -7.85)"/>
                </g>
                <g id="Group_14" transform="translate(156.931 .443)">
                    <path id="Path_21" d="M144.472 29.187a.378.378 0 0 1-.382-.382V8.772a.378.378 0 0 1 .382-.382h4.156a.378.378 0 0 1 .382.382v15.907h9.627a.378.378 0 0 1 .382.382V28.8a.378.378 0 0 1-.382.382z" class="cls-1" transform="translate(-143.708 -8.008)"/>
                    <path id="Path_22" d="M148.76 8.9v16.293h10.009v3.744H144.6V8.9h4.156m0-.764H144.6a.757.757 0 0 0-.764.764v20.037a.757.757 0 0 0 .764.764h14.165a.757.757 0 0 0 .764-.764v-3.744a.757.757 0 0 0-.764-.764h-9.245V8.9a.766.766 0 0 0-.764-.764z" class="cls-1" transform="translate(-143.84 -8.14)"/>
                </g>
            </g>
        </g>
        <g id="Group_10662" transform="translate(100 29)">
            <path id="Subtraction_3" d="M8.861 26.585H0v-3.077h5.784v-8.861h8.861V5.786h8.862V0h3.077v8.863h-8.862v8.861H8.861v8.86z" class="cls-2" transform="translate(19.431 16.415)"/>
            <path id="Subtraction_2" d="M8.862 17.561H0v-3.077h5.784V5.623h4.432A4.438 4.438 0 0 0 14.486 0a4.432 4.432 0 0 1-1.194 8.7h-4.43v8.86z" class="cls-2" transform="translate(3.846 4.008)"/>
            <g id="Group_10292">
                <path id="Path_398" d="M-7.6-42.792H-18v-19.262h14.062a5.213 5.213 0 0 1 5.2 5.2 5.213 5.213 0 0 1-5.2 5.2H-7.6zm-8.862-1.538h7.323v-8.862h5.2a3.67 3.67 0 0 0 3.662-3.662 3.67 3.67 0 0 0-3.662-3.662h-12.523z" class="cls-1" transform="translate(18 62.054)"/>
            </g>
            <g id="Group_10293" transform="translate(16.677 14.6)">
                <path id="Rectangle_4711" d="M0 0H3.631V3.631H0z" class="cls-2"/>
            </g>
            <g id="Group_10294" transform="translate(15.585 12.569)">
                <path id="Path_400" d="M2.53-25.761h-10.4v-19.261H.992v-8.862h19.261v10.4h-8.861v8.862H2.53zM-6.332-27.3H.992v-8.862h8.861v-8.862h8.862v-7.323H2.53v8.862h-8.862z" class="cls-1" transform="translate(7.87 53.884)"/>
            </g>
        </g>
    </g>
</svg>
